<svg xmlns="http://www.w3.org/2000/svg" xmlns:xlink="http://www.w3.org/1999/xlink" width="120" zoomAndPan="magnify" viewBox="0 0 90 30.000001" height="40" preserveAspectRatio="xMidYMid meet" version="1.0"><defs><g/><clipPath id="d8aa0204ff"><path d="M 57 0 L 86 0 L 86 29 L 57 29 Z M 57 0 " clip-rule="nonzero"/></clipPath><clipPath id="6246fe2f0b"><path d="M 63.964844 -3.722656 L 89.371094 7.015625 L 78.628906 32.417969 L 53.226562 21.679688 Z M 63.964844 -3.722656 " clip-rule="nonzero"/></clipPath><clipPath id="3ee53b255f"><path d="M 63.964844 -3.722656 L 89.371094 7.015625 L 78.628906 32.417969 L 53.226562 21.679688 Z M 63.964844 -3.722656 " clip-rule="nonzero"/></clipPath><clipPath id="bff9af9e35"><path d="M 62.972656 6.566406 L 81.09375 6.566406 L 81.09375 24.6875 L 62.972656 24.6875 Z M 62.972656 6.566406 " clip-rule="nonzero"/></clipPath><clipPath id="d1a4133ad7"><path d="M 72.035156 6.566406 C 67.03125 6.566406 62.972656 10.621094 62.972656 15.625 C 62.972656 20.628906 67.03125 24.6875 72.035156 24.6875 C 77.039062 24.6875 81.09375 20.628906 81.09375 15.625 C 81.09375 10.621094 77.039062 6.566406 72.035156 6.566406 Z M 72.035156 6.566406 " clip-rule="nonzero"/></clipPath></defs><g fill="#ffffff" fill-opacity="1"><g transform="translate(3.8279, 19.405381)"><g><path d="M 6.828125 -3.5 C 6.828125 -3.882812 6.679688 -4.21875 6.390625 -4.5 C 6.097656 -4.789062 5.753906 -4.9375 5.359375 -4.9375 L 3.6875 -4.9375 L 3.6875 -2.0625 L 5.359375 -2.0625 C 5.753906 -2.0625 6.097656 -2.203125 6.390625 -2.484375 C 6.679688 -2.765625 6.828125 -3.101562 6.828125 -3.5 Z M 6 -8.484375 C 6 -8.878906 5.859375 -9.207031 5.578125 -9.46875 C 5.304688 -9.738281 4.984375 -9.875 4.609375 -9.875 L 3.6875 -9.875 L 3.6875 -7.109375 L 4.609375 -7.109375 C 4.984375 -7.109375 5.304688 -7.242188 5.578125 -7.515625 C 5.859375 -7.785156 6 -8.109375 6 -8.484375 Z M 9.515625 -3.421875 C 9.515625 -2.390625 9.195312 -1.5625 8.5625 -0.9375 C 7.925781 -0.3125 7.035156 0 5.890625 0 L 1.0625 0 L 1.0625 -11.953125 L 5.171875 -11.953125 C 5.847656 -11.953125 6.4375 -11.816406 6.9375 -11.546875 C 7.4375 -11.273438 7.820312 -10.914062 8.09375 -10.46875 C 8.375 -10.019531 8.515625 -9.519531 8.515625 -8.96875 C 8.515625 -8.351562 8.382812 -7.828125 8.125 -7.390625 C 7.875 -6.953125 7.523438 -6.632812 7.078125 -6.4375 C 7.753906 -6.28125 8.328125 -5.941406 8.796875 -5.421875 C 9.273438 -4.898438 9.515625 -4.234375 9.515625 -3.421875 Z M 9.515625 -3.421875 "/></g></g></g><g fill="#ffffff" fill-opacity="1"><g transform="translate(13.513417, 19.405381)"><g><path d="M 0.875 -3.34375 L 0.875 -7.75 L 3.515625 -7.75 L 3.515625 -3.34375 C 3.515625 -2.894531 3.609375 -2.546875 3.796875 -2.296875 C 3.984375 -2.054688 4.28125 -1.9375 4.6875 -1.9375 C 5.101562 -1.9375 5.453125 -2.128906 5.734375 -2.515625 C 6.023438 -2.898438 6.171875 -3.351562 6.171875 -3.875 L 6.171875 -7.75 L 8.8125 -7.75 L 8.8125 0 L 6.171875 0 L 6.171875 -0.953125 C 5.910156 -0.617188 5.578125 -0.347656 5.171875 -0.140625 C 4.773438 0.0664062 4.316406 0.171875 3.796875 0.171875 C 2.765625 0.171875 2.019531 -0.148438 1.5625 -0.796875 C 1.101562 -1.453125 0.875 -2.300781 0.875 -3.34375 Z M 0.875 -3.34375 "/></g></g></g><g fill="#ffffff" fill-opacity="1"><g transform="translate(23.374713, 19.405381)"><g><path d="M 0.921875 -10.40625 C 0.921875 -10.84375 1.066406 -11.207031 1.359375 -11.5 C 1.660156 -11.800781 2.03125 -11.953125 2.46875 -11.953125 C 2.882812 -11.953125 3.242188 -11.800781 3.546875 -11.5 C 3.859375 -11.207031 4.015625 -10.84375 4.015625 -10.40625 C 4.015625 -9.988281 3.859375 -9.625 3.546875 -9.3125 C 3.242188 -9.007812 2.882812 -8.859375 2.46875 -8.859375 C 2.03125 -8.859375 1.660156 -9.007812 1.359375 -9.3125 C 1.066406 -9.625 0.921875 -9.988281 0.921875 -10.40625 Z M 3.78125 0 L 1.140625 0 L 1.140625 -7.75 L 3.78125 -7.75 Z M 3.78125 0 "/></g></g></g><g fill="#ffffff" fill-opacity="1"><g transform="translate(28.296572, 19.405381)"><g><path d="M 3.6875 0 L 1.0625 0 L 1.0625 -13.1875 L 3.6875 -13.1875 Z M 3.6875 0 "/></g></g></g><g fill="#ffffff" fill-opacity="1"><g transform="translate(33.042648, 19.405381)"><g><path d="M 4.375 -5.71875 L 4.375 0 L 1.765625 0 L 1.765625 -5.71875 L 0.359375 -5.71875 L 0.359375 -7.75 L 1.765625 -7.75 L 1.765625 -10.703125 L 4.375 -10.703125 L 4.375 -7.75 L 5.78125 -7.75 L 5.78125 -5.71875 Z M 4.375 -5.71875 "/></g></g></g><g fill="#ffffff" fill-opacity="1"><g transform="translate(40.463768, 19.365951)"><g><path d="M 2.1875 0 L 1.125 0 L 0.140625 -4.078125 L 1.09375 -4.078125 L 1.703125 -1.328125 L 1.78125 -1.328125 L 2.546875 -4.078125 L 3.4375 -4.078125 L 4.25 -1.328125 L 4.328125 -1.328125 L 4.90625 -4.078125 L 5.828125 -4.078125 L 4.859375 0 L 3.796875 0 L 3.015625 -2.78125 L 2.9375 -2.78125 Z M 2.1875 0 "/></g></g></g><g fill="#ffffff" fill-opacity="1"><g transform="translate(46.432139, 19.365951)"><g><path d="M 1.09375 -4.5625 C 0.914062 -4.5625 0.765625 -4.617188 0.640625 -4.734375 C 0.523438 -4.847656 0.46875 -4.992188 0.46875 -5.171875 C 0.46875 -5.347656 0.523438 -5.488281 0.640625 -5.59375 C 0.765625 -5.707031 0.914062 -5.765625 1.09375 -5.765625 C 1.21875 -5.765625 1.328125 -5.738281 1.421875 -5.6875 C 1.523438 -5.632812 1.601562 -5.5625 1.65625 -5.46875 C 1.707031 -5.382812 1.734375 -5.285156 1.734375 -5.171875 C 1.734375 -5.054688 1.707031 -4.953125 1.65625 -4.859375 C 1.601562 -4.765625 1.523438 -4.691406 1.421875 -4.640625 C 1.328125 -4.585938 1.21875 -4.5625 1.09375 -4.5625 Z M 0.59375 0 L 0.59375 -4.078125 L 1.609375 -4.078125 L 1.609375 0 Z M 0.59375 0 "/></g></g></g><g fill="#ffffff" fill-opacity="1"><g transform="translate(48.630038, 19.365951)"><g><path d="M 2.8125 -0.96875 L 3.078125 -0.21875 C 2.972656 -0.125 2.832031 -0.0507812 2.65625 0 C 2.488281 0.0507812 2.300781 0.078125 2.09375 0.078125 C 1.65625 0.078125 1.320312 -0.0390625 1.09375 -0.28125 C 0.863281 -0.519531 0.75 -0.867188 0.75 -1.328125 L 0.75 -3.265625 L 0.125 -3.265625 L 0.125 -4.078125 L 0.75 -4.078125 L 0.75 -4.875 L 1.765625 -5.046875 L 1.765625 -4.078125 L 2.921875 -4.078125 L 2.921875 -3.265625 L 1.765625 -3.265625 L 1.765625 -1.40625 C 1.765625 -1.207031 1.804688 -1.0625 1.890625 -0.96875 C 1.972656 -0.875 2.097656 -0.828125 2.265625 -0.828125 C 2.441406 -0.828125 2.597656 -0.875 2.734375 -0.96875 Z M 2.8125 -0.96875 "/></g></g></g><g fill="#ffffff" fill-opacity="1"><g transform="translate(51.801082, 19.365951)"><g><path d="M 0.59375 0 L 0.59375 -5.71875 L 1.609375 -5.71875 L 1.609375 -3.546875 L 1.6875 -3.53125 C 1.820312 -3.726562 1.988281 -3.878906 2.1875 -3.984375 C 2.382812 -4.097656 2.625 -4.15625 2.90625 -4.15625 C 3.800781 -4.15625 4.25 -3.644531 4.25 -2.625 L 4.25 0 L 3.234375 0 L 3.234375 -2.5 C 3.234375 -2.78125 3.175781 -2.984375 3.0625 -3.109375 C 2.945312 -3.234375 2.773438 -3.296875 2.546875 -3.296875 C 2.253906 -3.296875 2.023438 -3.195312 1.859375 -3 C 1.691406 -2.8125 1.609375 -2.515625 1.609375 -2.109375 L 1.609375 0 Z M 0.59375 0 "/></g></g></g><g clip-path="url(#d8aa0204ff)"><g clip-path="url(#6246fe2f0b)"><g clip-path="url(#3ee53b255f)"><path fill="#ffffff" d="M 69.128906 19.796875 C 66.210938 18.5625 64.84375 15.195312 66.078125 12.277344 C 67.3125 9.355469 70.679688 7.992188 73.597656 9.226562 C 76.519531 10.460938 77.882812 13.828125 76.648438 16.746094 C 75.414062 19.664062 72.046875 21.03125 69.128906 19.796875 Z M 84.535156 17.164062 L 82.285156 15.886719 C 82.394531 15.035156 82.402344 14.164062 82.304688 13.296875 L 84.570312 12.050781 C 84.949219 11.839844 85.109375 11.382812 84.949219 10.984375 L 83.566406 7.578125 C 83.40625 7.175781 82.96875 6.960938 82.554688 7.074219 L 80.058594 7.757812 C 79.523438 7.066406 78.910156 6.453125 78.242188 5.917969 L 78.960938 3.429688 C 79.082031 3.015625 78.871094 2.578125 78.476562 2.410156 L 75.089844 0.980469 C 74.691406 0.8125 74.230469 0.964844 74.019531 1.339844 L 72.738281 3.589844 C 71.886719 3.480469 71.019531 3.472656 70.148438 3.570312 L 68.902344 1.304688 C 68.695312 0.925781 68.234375 0.761719 67.835938 0.925781 L 64.429688 2.308594 C 64.03125 2.46875 63.8125 2.90625 63.929688 3.320312 L 64.613281 5.816406 C 63.921875 6.351562 63.304688 6.964844 62.769531 7.632812 L 60.285156 6.914062 C 59.871094 6.792969 59.429688 7.003906 59.261719 7.398438 L 57.832031 10.785156 C 57.664062 11.183594 57.820312 11.644531 58.195312 11.855469 L 60.441406 13.136719 C 60.335938 13.988281 60.324219 14.855469 60.421875 15.726562 L 58.15625 16.972656 C 57.777344 17.179688 57.617188 17.640625 57.777344 18.039062 L 59.160156 21.445312 C 59.324219 21.84375 59.757812 22.058594 60.175781 21.945312 L 62.667969 21.261719 C 63.203125 21.953125 63.816406 22.570312 64.488281 23.105469 L 63.765625 25.589844 C 63.644531 26.003906 63.855469 26.445312 64.253906 26.613281 L 67.582031 28.019531 C 67.972656 28.183594 68.425781 28.039062 68.644531 27.675781 L 69.988281 25.433594 C 70.839844 25.539062 71.710938 25.550781 72.578125 25.453125 L 73.824219 27.71875 C 74.035156 28.097656 74.492188 28.257812 74.890625 28.097656 L 78.296875 26.714844 C 78.699219 26.550781 78.914062 26.117188 78.800781 25.699219 L 78.117188 23.207031 C 78.808594 22.671875 79.421875 22.058594 79.957031 21.386719 L 82.445312 22.109375 C 82.859375 22.230469 83.296875 22.019531 83.464844 21.621094 L 84.894531 18.238281 C 85.0625 17.839844 84.910156 17.378906 84.535156 17.164062 " fill-opacity="1" fill-rule="nonzero"/></g></g></g><g clip-path="url(#bff9af9e35)"><g clip-path="url(#d1a4133ad7)"><path fill="#ffffff" d="M 62.972656 6.566406 L 81.09375 6.566406 L 81.09375 24.6875 L 62.972656 24.6875 Z M 62.972656 6.566406 " fill-opacity="1" fill-rule="nonzero"/></g></g><g fill="#000000" fill-opacity="1"><g transform="translate(64.400003, 19.311626)"><g><path d="M 5.953125 -3.609375 L 4.765625 -6.953125 L 3.578125 -3.609375 Z M 9.484375 0 L 7.25 0 L 6.5625 -1.90625 L 2.984375 -1.90625 L 2.296875 0 L 0.0625 0 L 3.890625 -9.421875 L 5.65625 -9.421875 Z M 9.484375 0 "/></g></g></g><g fill="#000000" fill-opacity="1"><g transform="translate(73.951051, 19.311626)"><g><path d="M 2.90625 0 L 0.828125 0 L 0.828125 -9.421875 L 2.90625 -9.421875 Z M 2.90625 0 "/></g></g></g></svg>